<svg xmlns="http://www.w3.org/2000/svg" viewBox="0 0 64 64"><g id="Layer_50" data-name="Layer 50"><path d="M61.19,31.09C42.87,8.52,21,8.61,2.81,31.09a1.5,1.5,0,0,0,0,1.82c18.32,22.57,40.15,22.48,58.38,0A1.5,1.5,0,0,0,61.19,31.09ZM32,47C19.52,47,8.79,35.37,5.94,32,23,12.19,41,12.29,58.06,32,55.21,35.38,44.5,47,32,47Z" id="id_101" style="fill: rgb(255, 255, 255);"></path><path d="M32,20A12,12,0,0,0,20,32C20.69,47.87,43.31,47.87,44,32A12,12,0,0,0,32,20ZM32,41a9,9,0,0,1-9-9C23.51,20.12,40.5,20.12,41,32A9,9,0,0,1,32,41Z" id="id_102" style="fill: rgb(255, 255, 255);"></path><path d="M32,25.39a1.5,1.5,0,0,0,0,3A3.61,3.61,0,0,1,35.61,32a1.5,1.5,0,0,0,3,0A6.62,6.62,0,0,0,32,25.39Z" id="id_103" style="fill: rgb(255, 255, 255);"></path></g></svg>