<svg xmlns="http://www.w3.org/2000/svg" viewBox="0 0 64 64"><g id="_34-Bar_Chart" data-name="34-Bar Chart"><path d="M62,61a.99943.99943,0,0,1-1,1H3a.99943.99943,0,0,1-1-1V3A1,1,0,0,1,4,3V60H61A.99943.99943,0,0,1,62,61ZM18,41a1,1,0,0,0-1-1H9a1,1,0,0,0-1,1V58H18Zm3-11V58H31V30a1,1,0,0,0-1-1H22A1,1,0,0,0,21,30Zm13,6V58H44V36a1,1,0,0,0-1-1H35A1,1,0,0,0,34,36ZM56,22H48a1,1,0,0,0-1,1V58H57V23A1,1,0,0,0,56,22Zm-21.03-.96-4.1-1.9A5.05644,5.05644,0,0,1,30.03,20.96l4.1,1.9A5.05719,5.05719,0,0,1,34.97,21.04Zm8.21.2L55,9.42V14a1,1,0,0,0,2,0V7a.99943.99943,0,0,0-1-1H49a1,1,0,0,0,0,2h4.58L41.76,19.82A5.32836,5.32836,0,0,1,43.18,21.24ZM17.39,26.6l5.52-4.67a5.16807,5.16807,0,0,1-1.3-1.53L16.09,25.07A5.16858,5.16858,0,0,1,17.39,26.6ZM13,32a3,3,0,1,0-3-3A3.00328,3.00328,0,0,0,13,32Zm26-5a3,3,0,1,0-3-3A3.00328,3.00328,0,0,0,39,27ZM26,21a3,3,0,1,0-3-3A3.00328,3.00328,0,0,0,26,21Z" id="id_113" style="fill: rgb(255, 255, 255);"></path></g></svg>