<svg xmlns:dc="http://purl.org/dc/elements/1.1/" xmlns:cc="http://creativecommons.org/ns#" xmlns:rdf="http://www.w3.org/1999/02/22-rdf-syntax-ns#" xmlns:svg="http://www.w3.org/2000/svg" xmlns="http://www.w3.org/2000/svg" width="24" height="24" viewBox="0 0 24 24" version="1.1" id="svg8">
<defs id="defs2">
<rect x="-1.1008456" y="289.81766" width="7.9207187" height="7.0346723" id="rect2504" style="fill: rgb(255, 255, 255);"></rect>
</defs>
<metadata id="metadata5">
<rdf:rdf>
<cc:work rdf:about="">
<dc:format>image/svg+xml</dc:format>
<dc:type rdf:resource="http://purl.org/dc/dcmitype/StillImage"></dc:type>
<dc:title></dc:title>
</cc:work>
</rdf:rdf>
</metadata>
<g style="display:inline;stroke-width:0.262528;stroke-miterlimit:4;stroke-dasharray:none" transform="matrix(3.7984262,0,0,3.819826,-0.05887475,-1110.3615)" id="g2963">
<path id="path2866" style="color: rgb(0, 0, 0); font: medium sans-serif; font-feature-settings: normal; font-variation-settings: normal; text-indent: 0px; text-align: start; text-decoration: none solid rgb(0, 0, 0); letter-spacing: normal; word-spacing: normal; text-transform: none; writing-mode: lr-tb; direction: ltr; text-orientation: mixed; dominant-baseline: auto; baseline-shift: baseline; text-anchor: start; white-space: normal; shape-margin: 0px; inline-size: 0px; clip-rule: nonzero; display: inline; overflow: visible; visibility: visible; opacity: 1; isolation: auto; mix-blend-mode: normal; color-interpolation: srgb; color-interpolation-filters: linearrgb; vector-effect: none; fill: rgb(255, 255, 255); fill-opacity: 1; fill-rule: nonzero; stroke: none; stroke-width: 0.999998; stroke-linecap: square; stroke-linejoin: miter; stroke-miterlimit: 4; stroke-dasharray: none; stroke-dashoffset: 0; stroke-opacity: 1; color-rendering: auto; image-rendering: auto; shape-rendering: auto; text-rendering: auto; stop-color: rgb(0, 0, 0); stop-opacity: 1;" d="m 20.267578,48.617188 v 0.498046 11.064454 h -2.144531 v -9.921876 -0.5 h -0.994141 v 0.5 9.921876 H 14.992188 V 51.75 51.242188 h -1 V 51.75 60.179688 H 11.638672 11.142578 V 61.1875 h 0.496094 10.410156 0.496094 V 60.179688 H 22.048828 21.261719 V 49.115234 48.617188 Z" transform="matrix(0.26326693,0,0,0.26179203,0.01575684,280.21211)"></path>
<path id="ellipse2880" style="color: rgb(0, 0, 0); font: medium sans-serif; font-feature-settings: normal; font-variation-settings: normal; text-indent: 0px; text-align: start; text-decoration: none solid rgb(0, 0, 0); letter-spacing: normal; word-spacing: normal; text-transform: none; writing-mode: lr-tb; direction: ltr; text-orientation: mixed; dominant-baseline: auto; baseline-shift: baseline; text-anchor: start; white-space: normal; shape-margin: 0px; inline-size: 0px; clip-rule: nonzero; display: inline; overflow: visible; visibility: visible; opacity: 1; isolation: auto; mix-blend-mode: normal; color-interpolation: srgb; color-interpolation-filters: linearrgb; vector-effect: none; fill: rgb(255, 255, 255); fill-opacity: 1; fill-rule: nonzero; stroke: none; stroke-width: 0.999998; stroke-linecap: butt; stroke-linejoin: miter; stroke-miterlimit: 4; stroke-dasharray: none; stroke-dashoffset: 0; stroke-opacity: 1; paint-order: fill markers; color-rendering: auto; image-rendering: auto; shape-rendering: auto; text-rendering: auto; stop-color: rgb(0, 0, 0); stop-opacity: 1;" d="m 17.195312,42.8125 v 1.005859 h 0.50586 1.341797 l -3.033203,3.082032 -1.707032,-1.730469 -3.835937,4.132812 -0.210938,0.226563 C 9.3647547,48.953899 8.3082544,48.617188 7.1738281,48.617188 c -3.1558392,0 -5.7207031,2.583422 -5.7207031,5.757812 0,3.174352 2.5648639,5.759766 5.7207031,5.759766 3.1558389,0 5.7265629,-2.585414 5.7265629,-5.759766 0,-1.669956 -0.715598,-3.171367 -1.84961,-4.224609 l 0.150391,-0.16211 3.130859,-3.371093 1.677735,1.701171 3.724609,-3.785156 v 1.359375 0.5 h 1 v -0.5 V 42.8125 H 17.701172 Z M 7.1738281,49.623047 c 2.6167423,0 4.7324219,2.119367 4.7324219,4.751953 0,2.632548 -2.1156796,4.753906 -4.7324219,4.753906 -2.6167422,0 -4.7265625,-2.121358 -4.7265625,-4.753906 0,-2.632586 2.1098203,-4.751953 4.7265625,-4.751953 z" transform="matrix(0.26326693,0,0,0.26179203,0.01575684,280.21211)"></path>
<path id="path2882" style="color: rgb(0, 0, 0); font: medium sans-serif; font-feature-settings: normal; font-variation-settings: normal; text-indent: 0px; text-align: start; text-decoration: none solid rgb(0, 0, 0); letter-spacing: normal; word-spacing: normal; text-transform: none; writing-mode: lr-tb; direction: ltr; text-orientation: mixed; dominant-baseline: auto; baseline-shift: baseline; text-anchor: start; white-space: normal; shape-margin: 0px; inline-size: 0px; clip-rule: nonzero; display: inline; overflow: visible; visibility: visible; opacity: 1; isolation: auto; mix-blend-mode: normal; color-interpolation: srgb; color-interpolation-filters: linearrgb; vector-effect: none; fill: rgb(255, 255, 255); fill-opacity: 1; fill-rule: nonzero; stroke: none; stroke-width: 0.999998; stroke-linecap: square; stroke-linejoin: miter; stroke-miterlimit: 4; stroke-dasharray: none; stroke-dashoffset: 0; stroke-opacity: 1; color-rendering: auto; image-rendering: auto; shape-rendering: auto; text-rendering: auto; stop-color: rgb(0, 0, 0); stop-opacity: 1;" d="m 6.6738281,51.251953 v 0.503906 0.292969 H 5.421875 V 54.875 h 2.5078125 v 0.822266 H 5.9277344 5.421875 v 1.005859 H 5.9277344 6.6738281 V 56.994141 57.5 h 1.0039063 v -0.505859 -0.291016 h 1.2460937 v -2.833984 h -2.5 v -0.814453 h 2.0039063 0.4960937 v -1.00586 h -0.4960937 -0.75 v -0.292969 -0.503906 z" transform="matrix(0.26326693,0,0,0.26179203,0.01575684,280.21211)"></path>
</g>
</svg>