<?xml version="1.0" encoding="utf-8"?>
<!-- Svg Vector Icons : http://www.onlinewebfonts.com/icon -->
<!DOCTYPE svg PUBLIC "-//W3C//DTD SVG 1.1//EN" "http://www.w3.org/Graphics/SVG/1.1/DTD/svg11.dtd">
<svg version="1.1" xmlns="http://www.w3.org/2000/svg" xmlns:xlink="http://www.w3.org/1999/xlink" x="0px" y="0px" viewBox="0 0 1000 1000" enable-background="new 0 0 1000 1000" xml:space="preserve">
<metadata> Svg Vector Icons : http://www.onlinewebfonts.com/icon </metadata>
<g><path d="M600.2,424.6c0-12.2-9.9-22.2-22.2-22.2H307.5c-12.2,0-22.2,9.9-22.2,22.2c0,12.2,9.9,22.2,22.2,22.2h270.6C590.3,446.8,600.2,436.8,600.2,424.6z"/><path d="M536.1,522.4c0-12.2-9.9-22.2-22.2-22.2H307.5c-12.2,0-22.2,9.9-22.2,22.2c0,12.3,9.9,22.2,22.2,22.2h206.4C526.1,544.6,536.1,534.7,536.1,522.4z"/><path d="M307.5,598.2c-12.2,0-22.2,9.9-22.2,22.2c0,12.2,9.9,22.2,22.2,22.2h119.8c12.3,0,23.6-9.9,23.6-22.2c0-12.3-9.9-22.2-22.2-22.2H307.5z"/><path d="M588.7,778.5H263.3c-21.6,0-39.2-17.6-39.2-39.3v-6.9v-59.6V366.5c0-21.7,17.6-39.3,39.2-39.3H636c21.6,0,39.2,17.6,39.2,39.3v57.4c18.5-7.5,38.3-12.6,58.8-14.9v-62.1c0-43.3-35.1-78.5-78.5-78.5h-76.8v-27.3c0-43.4-35.1-78.5-78.5-78.5H88.5c-43.3,0-78.5,35.1-78.5,78.5v412c0,43.4,35.1,78.5,78.5,78.5h76.8v27.3c0,43.4,35.1,78.5,78.5,78.5h423.4C636.8,823.7,610.1,803.5,588.7,778.5z M108.1,672.7c-21.6,0-39.2-17.6-39.2-39.2V260.7c0-21.7,17.6-39.3,39.2-39.3h372.6c21.6,0,39.2,17.6,39.2,39.3v7.7H243.7c-43.3,0-78.5,35.1-78.5,78.5v325.9H108.1z"/><path d="M784.8,426.1c-113.2,0-205,91.8-205.1,204.9c-0.1,113.1,92,205.1,205.4,205.1c112.8,0,204.8-91.9,204.9-204.7C990.1,518.1,898.1,426.1,784.8,426.1z M917.4,655c-18.4-0.1-61.7-0.1-108.6-0.1c0,46.9-0.1,90.2-0.1,108.6c-0.1,13.2-10.8,23.9-24,24c-13.2,0.1-23.8-10.6-23.8-23.8c0.1-18.5,0.1-61.8,0.1-108.8c-47,0-90.3,0.1-108.8,0.1c-13.2,0.1-23.8-10.6-23.8-23.8c0.1-13.2,10.8-23.9,24-24c18.4-0.1,61.7-0.1,108.5-0.1c0-46.9-0.1-90.3-0.1-108.6c-0.1-13.2,10.6-23.8,23.8-23.8c13.2,0.1,23.9,10.8,24,24c0.1,18.4,0.1,61.6,0.1,108.4c46.8,0,90,0.1,108.4,0.1c13.2,0.1,23.9,10.8,24,24C941.2,644.4,930.6,655.1,917.4,655z"/></g>
</svg>