<svg xmlns="http://www.w3.org/2000/svg" width="32" height="32" style=""><rect id="backgroundrect" width="100%" height="100%" x="0" y="0" fill="none" stroke="none"/><title>88-Option Add</title><g class="currentLayer" style=""><title>Layer 1</title><g id="_88-Option_Add" data-name="88-Option Add" class="selected" fill="#dadada" fill-opacity="1" stroke="#ffffff" stroke-opacity="1"><path d="M29,3.099099099636078 H26 V2.099099099636078 a3,3 0 0 0 -3,-3 H3 A3,3 0 0 0 0,2.099099099636078 V22.099099099636078 a3,3 0 0 0 3,3 H4 v3 a3,3 0 0 0 3,3 H29 a3,3 0 0 0 3,-3 V6.099099099636078 A3,3 0 0 0 29,3.099099099636078 zM4,6.099099099636078 V23.099099099636078 H3 a1,1 0 0 1 -1,-1 V2.099099099636078 A1,1 0 0 1 3,1.0990990996360779 H23 a1,1 0 0 1 1,1 V3.099099099636078 H7 A3,3 0 0 0 4,6.099099099636078 zM30,28.099099099636078 a1,1 0 0 1 -1,1 H7 a1,1 0 0 1 -1,-1 V6.099099099636078 A1,1 0 0 1 7,5.099099099636078 H29 a1,1 0 0 1 1,1 z" id="svg_1" fill="#dadada" fill-opacity="1" stroke="#ffffff" stroke-opacity="1"/><polygon points="19,10.099099099636078 17,10.099099099636078 17,16.099099099636078 11,16.099099099636078 11,18.099099099636078 17,18.099099099636078 17,24.099099099636078 19,24.099099099636078 19,18.099099099636078 25,18.099099099636078 25,16.099099099636078 19,16.099099099636078 19,10.099099099636078 " id="svg_2" fill="#dadada" fill-opacity="1" stroke="#ffffff" stroke-opacity="1"/></g></g></svg>