<svg xmlns="http://www.w3.org/2000/svg" xmlns:xlink="http://www.w3.org/1999/xlink" version="1.1" style="enable-background:new 0 0 60.364 60.364;" xml:space="preserve" width="60.364" height="60.364"><rect id="backgroundrect" width="100%" height="100%" x="0" y="0" fill="none" stroke="none"/>
















<g class="currentLayer" style=""><title>Layer 1</title><g id="svg_1" class="selected" stroke="none" fill="#ffffff" fill-opacity="1">
	<path d="M54.454,22.279099099636078 l-18.609,-0.0020000000000000005 L35.844,5.009099099636078 C35.845,1.7450990996360778 33.198,-0.9009009003639221 29.934,-0.9009009003639221 c-3.263,0 -5.909,2.646 -5.909,5.91 v17.269 L5.91,22.27709909963608 C2.646,22.278099099636076 0,24.924099099636077 0,28.18709909963608 c0.0020000000000000005,3.2640000000000002 2.646,5.909 5.91,5.909 h18.115 v19.457 c0,3.267 2.646,5.91 5.91,5.91 c3.2640000000000002,0 5.909,-2.646 5.91,-5.908 V34.09609909963608 h18.611 c3.262,0 5.908,-2.645 5.908,-5.907 C60.367,24.92309909963608 57.718,22.27709909963608 54.454,22.279099099636078 z" id="svg_2" stroke="none" fill="#ffffff" fill-opacity="1"/>
</g><g id="svg_3">
</g><g id="svg_4">
</g><g id="svg_5">
</g><g id="svg_6">
</g><g id="svg_7">
</g><g id="svg_8">
</g><g id="svg_9">
</g><g id="svg_10">
</g><g id="svg_11">
</g><g id="svg_12">
</g><g id="svg_13">
</g><g id="svg_14">
</g><g id="svg_15">
</g><g id="svg_16">
</g><g id="svg_17">
</g></g></svg>